<svg xmlns="http://www.w3.org/2000/svg" aria-hidden="true" style="position:absolute;width:0;height:0;overflow:hidden"><defs><symbol id="icon-close" viewBox="0 0 32 32"><path fill="#fff" d="M28.632 12.632c0 6.976-5.655 12.632-12.632 12.632S3.368 19.609 3.368 12.632C3.368 5.656 9.023 0 16 0s12.632 5.655 12.632 12.632z" style="fill:var(--color1, #fff)"/><path fill="none" stroke="#000" stroke-width=".842" d="M28.211 12.632c0 6.744-5.467 12.211-12.211 12.211S3.789 19.376 3.789 12.632C3.789 5.888 9.256.421 16 .421s12.211 5.467 12.211 12.211z" style="stroke:var(--color2, #000)"/><path d="m21.053 8.512-.933-.933-3.699 3.699-3.699-3.699-.933.933 3.699 3.699-3.699 3.699.933.933 3.699-3.699 3.699 3.699.933-.933-3.699-3.699 3.699-3.699z" style="fill:var(--color2, #000)"/></symbol></defs></svg>